<mxfile host="app.diagrams.net" modified="2020-11-15T19:11:05.334Z" agent="5.0 (Windows NT 10.0; Win64; x64) AppleWebKit/537.36 (KHTML, like Gecko) Chrome/86.0.4240.193 Safari/537.36" etag="AGOEwc98NCdZ-JYq-4nV" version="13.9.2" type="github">
  <diagram id="ERtJUcit2QA-R1B6kV4Z" name="Page-1">
    <mxGraphModel dx="761" dy="343" grid="0" gridSize="10" guides="1" tooltips="1" connect="1" arrows="1" fold="1" page="1" pageScale="1" pageWidth="1100" pageHeight="850" math="0" shadow="0">
      <root>
        <mxCell id="0" />
        <mxCell id="1" parent="0" />
        <mxCell id="ntHKBC9doP0J3iSfxOcG-5" style="edgeStyle=orthogonalEdgeStyle;rounded=0;orthogonalLoop=1;jettySize=auto;html=1;exitX=1;exitY=0.25;exitDx=0;exitDy=0;" edge="1" parent="1" source="n_6YIvcGTNlwgTO5OjOo-1">
          <mxGeometry relative="1" as="geometry">
            <mxPoint x="245.08203125" y="70.67457580566406" as="targetPoint" />
          </mxGeometry>
        </mxCell>
        <mxCell id="ntHKBC9doP0J3iSfxOcG-6" style="edgeStyle=orthogonalEdgeStyle;rounded=0;orthogonalLoop=1;jettySize=auto;html=1;exitX=1;exitY=0.5;exitDx=0;exitDy=0;" edge="1" parent="1" source="n_6YIvcGTNlwgTO5OjOo-1">
          <mxGeometry relative="1" as="geometry">
            <mxPoint x="243.17398071289062" y="135" as="targetPoint" />
          </mxGeometry>
        </mxCell>
        <mxCell id="ntHKBC9doP0J3iSfxOcG-7" style="edgeStyle=orthogonalEdgeStyle;rounded=0;orthogonalLoop=1;jettySize=auto;html=1;exitX=1;exitY=0.75;exitDx=0;exitDy=0;" edge="1" parent="1" source="n_6YIvcGTNlwgTO5OjOo-1">
          <mxGeometry relative="1" as="geometry">
            <mxPoint x="245.08203125" y="199.15159606933594" as="targetPoint" />
          </mxGeometry>
        </mxCell>
        <mxCell id="n_6YIvcGTNlwgTO5OjOo-1" value="&lt;blockquote style=&quot;margin: 0 0 0 40px ; border: none ; padding: 0px&quot;&gt;userId:&lt;/blockquote&gt;&lt;blockquote style=&quot;margin: 0 0 0 40px ; border: none ; padding: 0px&quot;&gt;firstName:&lt;/blockquote&gt;&lt;blockquote style=&quot;margin: 0 0 0 40px ; border: none ; padding: 0px&quot;&gt;&amp;nbsp;&lt;/blockquote&gt;" style="rounded=0;whiteSpace=wrap;html=1;align=left;" parent="1" vertex="1">
          <mxGeometry x="40" y="40" width="168" height="189" as="geometry" />
        </mxCell>
        <mxCell id="ntHKBC9doP0J3iSfxOcG-1" value="USER MODEL" style="text;html=1;strokeColor=none;fillColor=none;align=center;verticalAlign=middle;whiteSpace=wrap;rounded=0;" vertex="1" parent="1">
          <mxGeometry x="49" y="46" width="102" height="20" as="geometry" />
        </mxCell>
        <mxCell id="ntHKBC9doP0J3iSfxOcG-2" value="userId: 1, firstName: John" style="rounded=0;whiteSpace=wrap;html=1;fillColor=#d5e8d4;strokeColor=#82b366;" vertex="1" parent="1">
          <mxGeometry x="246" y="40" width="196" height="60" as="geometry" />
        </mxCell>
        <mxCell id="ntHKBC9doP0J3iSfxOcG-3" value="userId: 2, firstName: Dobby" style="rounded=0;whiteSpace=wrap;html=1;fillColor=#f8cecc;strokeColor=#b85450;" vertex="1" parent="1">
          <mxGeometry x="246" y="104.5" width="196" height="60" as="geometry" />
        </mxCell>
        <mxCell id="ntHKBC9doP0J3iSfxOcG-4" value="userId: 3, firstName: Harry" style="rounded=0;whiteSpace=wrap;html=1;fillColor=#dae8fc;strokeColor=#6c8ebf;" vertex="1" parent="1">
          <mxGeometry x="246" y="169" width="196" height="60" as="geometry" />
        </mxCell>
      </root>
    </mxGraphModel>
  </diagram>
</mxfile>
